<svg width="437" height="187" viewBox="0 0 437 187" fill="none" xmlns="http://www.w3.org/2000/svg">
<path d="M41.5 76.4806C33.5 49.6806 13.8333 42.3139 5 41.9806L0 185H435V41.9806C422.2 16.3807 415.333 24.3139 413.5 31.4805C409.1 45.8805 401.333 35.8138 398 28.9805C394 12.5804 383 13.8139 378 16.4806C368.8 26.4809 353.833 20.6474 347.5 16.4806C337.5 16.4806 330.667 10.4804 328.5 7.48029C315.3 -4.11971 308 0.313625 306 3.98029C301.6 6.78029 293.833 17.147 290.5 21.9803C279.7 31.18 274.333 18.1471 273 10.4806C269 -3.51938 263.333 8.64728 261 16.4806C256.2 33.2806 249 40.4806 246 41.9806C241.6 41.9806 237.5 46.9806 236 49.4806C229.2 63.8806 222.167 59.4806 219.5 55.4806C212.7 45.8806 206.333 56.8139 204 63.4806C200.8 74.6806 195.333 70.8139 193 67.4806C189.5 58.4806 186 45.4806 177.5 55.4806C170.7 63.4806 165.333 54.8139 163.5 49.4806C156.3 35.4806 152.167 47.6473 151 55.4806C144.2 75.8806 137.5 63.9806 135 55.4806C131 45.4806 125.667 51.3139 123.5 55.4806C120.7 66.2806 113 65.3139 109.5 63.4806C103.1 53.0806 87.5 81.1473 80.5 96.4806C76.9 105.681 70 97.6473 67 92.4806C61.4 81.2806 56.3333 79.814 54.5 80.4806C48.9 87.6806 43.5 80.814 41.5 76.4806Z" fill="#4CC89C" fill-opacity="0.06"/>
<g clip-path="url(#clip0_503_14)">
<path d="M5 41.9806C13.8333 42.3139 33.5 49.6806 41.5 76.4806C43.5 80.814 48.9 87.6806 54.5 80.4806C56.3333 79.814 61.4 81.2806 67 92.4806C70 97.6473 76.9 105.681 80.5 96.4806C87.5 81.1473 103.1 53.0806 109.5 63.4806C113 65.3139 120.7 66.2806 123.5 55.4806C125.667 51.3139 131 45.4806 135 55.4806C137.5 63.9806 144.2 75.8806 151 55.4806C152.167 47.6473 156.3 35.4806 163.5 49.4806C165.333 54.8139 170.7 63.4806 177.5 55.4806C186 45.4806 189.5 58.4806 193 67.4806C195.333 70.8139 200.8 74.6806 204 63.4806C206.333 56.8139 212.7 45.8806 219.5 55.4806C222.167 59.4806 229.2 63.8806 236 49.4806C237.5 46.9806 241.6 41.9806 246 41.9806C249 40.4806 256.2 33.2806 261 16.4806C263.333 8.64728 269 -3.51938 273 10.4806C274.333 18.1471 279.7 31.18 290.5 21.9803C293.833 17.147 301.6 6.78029 306 3.98029C308 0.313625 315.3 -4.11971 328.5 7.48029C330.667 10.4804 337.5 16.4806 347.5 16.4806C353.833 20.6474 368.8 26.4809 378 16.4806C383 13.8139 394 12.5804 398 28.9805C401.333 35.8138 409.1 45.8805 413.5 31.4805C415.333 24.3139 422.2 16.3807 435 41.9806" fill="black"/>
<path d="M5 41.9806C13.8333 42.3139 33.5 49.6806 41.5 76.4806C43.5 80.814 48.9 87.6806 54.5 80.4806C56.3333 79.814 61.4 81.2806 67 92.4806C70 97.6473 76.9 105.681 80.5 96.4806C87.5 81.1473 103.1 53.0806 109.5 63.4806C113 65.3139 120.7 66.2806 123.5 55.4806C125.667 51.3139 131 45.4806 135 55.4806C137.5 63.9806 144.2 75.8806 151 55.4806C152.167 47.6473 156.3 35.4806 163.5 49.4806C165.333 54.8139 170.7 63.4806 177.5 55.4806C186 45.4806 189.5 58.4806 193 67.4806C195.333 70.8139 200.8 74.6806 204 63.4806C206.333 56.8139 212.7 45.8806 219.5 55.4806C222.167 59.4806 229.2 63.8806 236 49.4806C237.5 46.9806 241.6 41.9806 246 41.9806C249 40.4806 256.2 33.2806 261 16.4806C263.333 8.64728 269 -3.51938 273 10.4806C274.333 18.1471 279.7 31.18 290.5 21.9803C293.833 17.147 301.6 6.78029 306 3.98029C308 0.313625 315.3 -4.11971 328.5 7.48029C330.667 10.4804 337.5 16.4806 347.5 16.4806C353.833 20.6474 368.8 26.4809 378 16.4806C383 13.8139 394 12.5804 398 28.9805C401.333 35.8138 409.1 45.8805 413.5 31.4805C415.333 24.3139 422.2 16.3807 435 41.9806" stroke="url(#paint0_linear_503_14)" stroke-width="0.007111"/>
</g>
<defs>
<linearGradient id="paint0_linear_503_14" x1="391" y1="29" x2="83" y2="79" gradientUnits="userSpaceOnUse">
<stop stop-color="#4CBD97" stop-opacity="0"/>
<stop offset="1" stop-color="#4CBD97"/>
</linearGradient>
<clipPath id="clip0_503_14">
<rect width="432" height="103" fill="white" transform="translate(5)"/>
</clipPath>
</defs>
</svg>
